<mxfile host="www.draw.io" modified="2019-12-05T02:04:10.988Z" agent="Mozilla/5.0 (Windows NT 10.0; Win64; x64) AppleWebKit/537.36 (KHTML, like Gecko) Chrome/78.0.3904.97 Safari/537.36" etag="NTslRpONHM39MpPrj7b1" version="12.3.6" type="github" pages="1">
  <diagram id="6I0OCvxSQrVGMHxT2VVA" name="Page-1">
    <mxGraphModel dx="2062" dy="1105" grid="1" gridSize="10" guides="1" tooltips="1" connect="1" arrows="1" fold="1" page="1" pageScale="1" pageWidth="850" pageHeight="1100" math="0" shadow="0">
      <root>
        <mxCell id="0"/>
        <mxCell id="1" parent="0"/>
        <mxCell id="dKdSaXE48SgPbhcamS2K-33" value="EtcdScheduler" style="html=1;whiteSpace=wrap;fillColor=#AFFFAF;shape=mxgraph.archimate3.application;appType=node;archiType=square;fontSize=14;verticalAlign=top;" parent="1" vertex="1">
          <mxGeometry x="350" y="815" width="720" height="145" as="geometry"/>
        </mxCell>
        <mxCell id="PpUPip6HH4SMG-2IEURm-23" style="edgeStyle=orthogonalEdgeStyle;rounded=0;orthogonalLoop=1;jettySize=auto;html=1;entryX=0.5;entryY=1;entryDx=0;entryDy=0;entryPerimeter=0;" parent="1" source="dKdSaXE48SgPbhcamS2K-35" target="PpUPip6HH4SMG-2IEURm-11" edge="1">
          <mxGeometry relative="1" as="geometry"/>
        </mxCell>
        <mxCell id="dKdSaXE48SgPbhcamS2K-35" value="Filter Module" style="html=1;whiteSpace=wrap;fillColor=#AFFFAF;shape=mxgraph.archimate3.tech;techType=sysSw;fontSize=14;" parent="1" vertex="1">
          <mxGeometry x="707" y="860" width="140" height="60" as="geometry"/>
        </mxCell>
        <mxCell id="PpUPip6HH4SMG-2IEURm-32" style="edgeStyle=orthogonalEdgeStyle;rounded=0;orthogonalLoop=1;jettySize=auto;html=1;entryX=0.5;entryY=1;entryDx=0;entryDy=0;entryPerimeter=0;" parent="1" source="dKdSaXE48SgPbhcamS2K-37" target="PpUPip6HH4SMG-2IEURm-15" edge="1">
          <mxGeometry relative="1" as="geometry"/>
        </mxCell>
        <mxCell id="PpUPip6HH4SMG-2IEURm-33" style="edgeStyle=orthogonalEdgeStyle;rounded=0;orthogonalLoop=1;jettySize=auto;html=1;entryX=0;entryY=0;entryDx=150;entryDy=25;entryPerimeter=0;" parent="1" source="dKdSaXE48SgPbhcamS2K-37" target="PpUPip6HH4SMG-2IEURm-27" edge="1">
          <mxGeometry relative="1" as="geometry">
            <Array as="points">
              <mxPoint x="954" y="800"/>
              <mxPoint x="1053" y="800"/>
              <mxPoint x="1053" y="666"/>
            </Array>
          </mxGeometry>
        </mxCell>
        <mxCell id="PpUPip6HH4SMG-2IEURm-35" style="edgeStyle=orthogonalEdgeStyle;rounded=0;orthogonalLoop=1;jettySize=auto;html=1;entryX=0;entryY=0;entryDx=150;entryDy=25;entryPerimeter=0;" parent="1" source="dKdSaXE48SgPbhcamS2K-37" target="PpUPip6HH4SMG-2IEURm-30" edge="1">
          <mxGeometry relative="1" as="geometry">
            <Array as="points">
              <mxPoint x="954" y="800"/>
              <mxPoint x="1053" y="800"/>
              <mxPoint x="1053" y="580"/>
            </Array>
          </mxGeometry>
        </mxCell>
        <mxCell id="PpUPip6HH4SMG-2IEURm-36" style="edgeStyle=orthogonalEdgeStyle;rounded=0;orthogonalLoop=1;jettySize=auto;html=1;entryX=0;entryY=0;entryDx=150;entryDy=25;entryPerimeter=0;" parent="1" source="dKdSaXE48SgPbhcamS2K-37" target="PpUPip6HH4SMG-2IEURm-31" edge="1">
          <mxGeometry relative="1" as="geometry">
            <Array as="points">
              <mxPoint x="954" y="800"/>
              <mxPoint x="1053" y="800"/>
              <mxPoint x="1053" y="501"/>
            </Array>
          </mxGeometry>
        </mxCell>
        <mxCell id="dKdSaXE48SgPbhcamS2K-37" value="Rank Module" style="html=1;whiteSpace=wrap;fillColor=#AFFFAF;shape=mxgraph.archimate3.tech;techType=sysSw;fontSize=14;" parent="1" vertex="1">
          <mxGeometry x="884" y="857.5" width="140" height="60" as="geometry"/>
        </mxCell>
        <mxCell id="PpUPip6HH4SMG-2IEURm-10" style="edgeStyle=orthogonalEdgeStyle;rounded=0;orthogonalLoop=1;jettySize=auto;html=1;entryX=0.5;entryY=1;entryDx=0;entryDy=0;" parent="1" source="dKdSaXE48SgPbhcamS2K-40" target="dKdSaXE48SgPbhcamS2K-47" edge="1">
          <mxGeometry relative="1" as="geometry"/>
        </mxCell>
        <mxCell id="dKdSaXE48SgPbhcamS2K-40" value="EtcdMigration" style="html=1;whiteSpace=wrap;fillColor=#AFFFAF;shape=mxgraph.archimate3.service;fontSize=14;" parent="1" vertex="1">
          <mxGeometry x="372.5" y="726" width="150" height="50" as="geometry"/>
        </mxCell>
        <mxCell id="dKdSaXE48SgPbhcamS2K-47" value="ApiServer" style="shape=component;align=center;fillColor=#99ffff;gradientColor=none;fontSize=14;" parent="1" vertex="1">
          <mxGeometry x="368.5" y="605" width="158" height="70" as="geometry"/>
        </mxCell>
        <mxCell id="PpUPip6HH4SMG-2IEURm-6" style="edgeStyle=orthogonalEdgeStyle;rounded=0;orthogonalLoop=1;jettySize=auto;html=1;" parent="1" source="dKdSaXE48SgPbhcamS2K-54" target="dKdSaXE48SgPbhcamS2K-47" edge="1">
          <mxGeometry relative="1" as="geometry"/>
        </mxCell>
        <mxCell id="dKdSaXE48SgPbhcamS2K-54" value="kubectl create etcdmigration" style="html=1;whiteSpace=wrap;fillColor=#ffff99;shape=mxgraph.archimate3.application;appType=func;archiType=rounded;fontSize=14;" parent="1" vertex="1">
          <mxGeometry x="376" y="463" width="143" height="68" as="geometry"/>
        </mxCell>
        <mxCell id="dKdSaXE48SgPbhcamS2K-58" value="Technology" style="text;html=1;strokeColor=none;fillColor=none;align=center;verticalAlign=middle;whiteSpace=wrap;fontSize=14;" parent="1" vertex="1">
          <mxGeometry x="1269" y="751" width="240" height="20" as="geometry"/>
        </mxCell>
        <mxCell id="dKdSaXE48SgPbhcamS2K-59" value="Application" style="text;html=1;strokeColor=none;fillColor=none;align=center;verticalAlign=middle;whiteSpace=wrap;fontSize=14;" parent="1" vertex="1">
          <mxGeometry x="1269" y="541" width="240" height="20" as="geometry"/>
        </mxCell>
        <mxCell id="dKdSaXE48SgPbhcamS2K-60" value="Business" style="text;html=1;strokeColor=none;fillColor=none;align=center;verticalAlign=middle;whiteSpace=wrap;fontSize=14;" parent="1" vertex="1">
          <mxGeometry x="1259" y="389" width="240" height="20" as="geometry"/>
        </mxCell>
        <mxCell id="dKdSaXE48SgPbhcamS2K-61" style="edgeStyle=elbowEdgeStyle;rounded=1;elbow=vertical;html=1;dashed=1;startSize=10;endArrow=block;endFill=0;endSize=10;jettySize=auto;orthogonalLoop=1;strokeColor=#808080;fontSize=14;" parent="1" source="dKdSaXE48SgPbhcamS2K-62" target="dKdSaXE48SgPbhcamS2K-54" edge="1">
          <mxGeometry relative="1" as="geometry"/>
        </mxCell>
        <mxCell id="dKdSaXE48SgPbhcamS2K-62" value="" style="html=1;whiteSpace=wrap;fillColor=#ffff99;shape=mxgraph.archimate3.actor;fontSize=14;" parent="1" vertex="1">
          <mxGeometry x="250" y="453" width="50" height="95" as="geometry"/>
        </mxCell>
        <mxCell id="dKdSaXE48SgPbhcamS2K-63" value="Title" style="text;strokeColor=none;fillColor=none;html=1;fontSize=24;fontStyle=1;verticalAlign=middle;align=center;" parent="1" vertex="1">
          <mxGeometry x="50" y="70" width="1590" height="40" as="geometry"/>
        </mxCell>
        <mxCell id="PpUPip6HH4SMG-2IEURm-9" style="edgeStyle=orthogonalEdgeStyle;rounded=0;orthogonalLoop=1;jettySize=auto;html=1;entryX=0.5;entryY=1;entryDx=0;entryDy=0;entryPerimeter=0;" parent="1" source="PpUPip6HH4SMG-2IEURm-1" target="dKdSaXE48SgPbhcamS2K-40" edge="1">
          <mxGeometry relative="1" as="geometry"/>
        </mxCell>
        <mxCell id="PpUPip6HH4SMG-2IEURm-1" value="Watch Module" style="html=1;whiteSpace=wrap;fillColor=#AFFFAF;shape=mxgraph.archimate3.tech;techType=sysSw;fontSize=14;" parent="1" vertex="1">
          <mxGeometry x="377.5" y="857.5" width="140" height="60" as="geometry"/>
        </mxCell>
        <mxCell id="PpUPip6HH4SMG-2IEURm-3" value="HTTP Module" style="html=1;whiteSpace=wrap;fillColor=#AFFFAF;shape=mxgraph.archimate3.tech;techType=sysSw;fontSize=14;" parent="1" vertex="1">
          <mxGeometry x="540" y="860" width="140" height="60" as="geometry"/>
        </mxCell>
        <mxCell id="PpUPip6HH4SMG-2IEURm-24" style="edgeStyle=orthogonalEdgeStyle;rounded=0;orthogonalLoop=1;jettySize=auto;html=1;entryX=0.5;entryY=1;entryDx=0;entryDy=0;entryPerimeter=0;" parent="1" source="PpUPip6HH4SMG-2IEURm-11" target="PpUPip6HH4SMG-2IEURm-12" edge="1">
          <mxGeometry relative="1" as="geometry"/>
        </mxCell>
        <mxCell id="PpUPip6HH4SMG-2IEURm-11" value="Healthy" style="html=1;whiteSpace=wrap;fillColor=#AFFFAF;shape=mxgraph.archimate3.service;fontSize=14;" parent="1" vertex="1">
          <mxGeometry x="702" y="721" width="150" height="50" as="geometry"/>
        </mxCell>
        <mxCell id="PpUPip6HH4SMG-2IEURm-25" style="edgeStyle=orthogonalEdgeStyle;rounded=0;orthogonalLoop=1;jettySize=auto;html=1;entryX=0.447;entryY=0.98;entryDx=0;entryDy=0;entryPerimeter=0;" parent="1" source="PpUPip6HH4SMG-2IEURm-12" edge="1">
          <mxGeometry relative="1" as="geometry">
            <mxPoint x="777" y="604" as="targetPoint"/>
          </mxGeometry>
        </mxCell>
        <mxCell id="PpUPip6HH4SMG-2IEURm-12" value="Labels" style="html=1;whiteSpace=wrap;fillColor=#AFFFAF;shape=mxgraph.archimate3.service;fontSize=14;" parent="1" vertex="1">
          <mxGeometry x="702" y="641" width="150" height="50" as="geometry"/>
        </mxCell>
        <mxCell id="PpUPip6HH4SMG-2IEURm-15" value="MinConnection" style="html=1;whiteSpace=wrap;fillColor=#AFFFAF;shape=mxgraph.archimate3.service;fontSize=14;" parent="1" vertex="1">
          <mxGeometry x="879" y="721" width="150" height="50" as="geometry"/>
        </mxCell>
        <mxCell id="PpUPip6HH4SMG-2IEURm-20" value="" style="edgeStyle=orthogonalEdgeStyle;rounded=0;orthogonalLoop=1;jettySize=auto;html=1;entryX=0.5;entryY=0;entryDx=0;entryDy=0;entryPerimeter=0;" parent="1" source="PpUPip6HH4SMG-2IEURm-16" target="PpUPip6HH4SMG-2IEURm-3" edge="1">
          <mxGeometry relative="1" as="geometry">
            <mxPoint x="622" y="755" as="targetPoint"/>
          </mxGeometry>
        </mxCell>
        <mxCell id="PpUPip6HH4SMG-2IEURm-16" value="外部模块" style="shape=component;align=center;fillColor=#99ffff;gradientColor=none;fontSize=14;" parent="1" vertex="1">
          <mxGeometry x="540" y="605" width="140" height="70" as="geometry"/>
        </mxCell>
        <mxCell id="PpUPip6HH4SMG-2IEURm-26" value="Policy" style="html=1;whiteSpace=wrap;fillColor=#AFFFAF;shape=mxgraph.archimate3.service;fontSize=14;" parent="1" vertex="1">
          <mxGeometry x="702" y="555" width="150" height="50" as="geometry"/>
        </mxCell>
        <mxCell id="PpUPip6HH4SMG-2IEURm-27" value="DiskIo" style="html=1;whiteSpace=wrap;fillColor=#AFFFAF;shape=mxgraph.archimate3.service;fontSize=14;" parent="1" vertex="1">
          <mxGeometry x="883" y="641" width="150" height="50" as="geometry"/>
        </mxCell>
        <mxCell id="PpUPip6HH4SMG-2IEURm-30" value="QPS/Latency" style="html=1;whiteSpace=wrap;fillColor=#AFFFAF;shape=mxgraph.archimate3.service;fontSize=14;" parent="1" vertex="1">
          <mxGeometry x="883" y="555" width="150" height="50" as="geometry"/>
        </mxCell>
        <mxCell id="PpUPip6HH4SMG-2IEURm-31" value="Cpu/Memory" style="html=1;whiteSpace=wrap;fillColor=#AFFFAF;shape=mxgraph.archimate3.service;fontSize=14;" parent="1" vertex="1">
          <mxGeometry x="883" y="475.5" width="150" height="50" as="geometry"/>
        </mxCell>
      </root>
    </mxGraphModel>
  </diagram>
</mxfile>
